<?xml version="1.0" encoding="UTF-8" standalone="no"?>
<svg width="100px" height="101px" viewBox="0 0 100 101" version="1.1" xmlns="http://www.w3.org/2000/svg" xmlns:xlink="http://www.w3.org/1999/xlink" xmlns:sketch="http://www.bohemiancoding.com/sketch/ns">
    <!-- Generator: Sketch 3.4.4 (17249) - http://www.bohemiancoding.com/sketch -->
    <title>Slice 1</title>
    <desc>Created with Sketch.</desc>
    <defs></defs>
    <g id="Page-1" stroke="none" stroke-width="1" fill="none" fill-rule="evenodd" sketch:type="MSPage">
        <g sketch:type="MSLayerGroup" transform="translate(0.000000, 93.000000)"></g>
        <g id="Fill-1-+-Fill-2" sketch:type="MSLayerGroup" fill="#434343">
            <path d="M49.9613313,0.0773373091 C63.2118936,0.0773373091 75.9197543,5.34114395 85.2893264,14.7107019 C94.6588986,24.080274 99.9226485,36.7881348 99.9226485,50.0386687 C99.9226485,77.6315613 77.5542098,100 49.9613313,100 C22.3684529,100 0,77.6315613 0,50.0386687 C0,22.4458185 22.3684529,0.0773373091 49.9613313,0.0773373091 Z" id="Fill-1" fill-opacity="0.3" sketch:type="MSShapeGroup"></path>
            <path d="M53.5513581,52.0709749 L60.6504381,52.0709749 L61.7111324,43.860578 L53.5513581,43.860578 L53.5513581,38.5763011 C53.5513581,36.2189524 54.2042784,34.5933427 57.6313516,34.5933427 L62.0375925,34.5933427 L62.0375925,27.1957435 C61.30316,27.1142596 58.6920458,26.8706018 55.6729734,26.8706018 C49.3083543,26.8706018 45.0653222,30.6910318 45.0653222,37.7634892 L45.0653222,43.860578 L37.8849426,43.860578 L37.8849426,52.0709749 L45.0653222,52.0709749 L45.0653222,73.2064662 L53.5513581,73.2064662 L53.5513581,52.0709749 Z" id="Fill-2" fill-opacity="0.8" sketch:type="MSShapeGroup"></path>
        </g>
    </g>
</svg>