<?xml version="1.0" standalone="no"?><!DOCTYPE svg PUBLIC "-//W3C//DTD SVG 1.1//EN" "http://www.w3.org/Graphics/SVG/1.1/DTD/svg11.dtd"><svg width="100%" height="100%" viewBox="0 0 39 39" version="1.1" xmlns="http://www.w3.org/2000/svg" xmlns:xlink="http://www.w3.org/1999/xlink" xml:space="preserve" style="fill-rule:evenodd;clip-rule:evenodd;stroke-linejoin:round;stroke-miterlimit:1.41421;"><path d="M-4.61853e-14,19.5797c0,-10.8136 8.76614,-19.5797 19.5797,-19.5797c5.19287,0 10.173,2.06287 13.845,5.73478c3.67191,3.67191 5.73476,8.65209 5.73476,13.8449c0,10.8136 -8.76614,19.5797 -19.5797,19.5797c-10.8136,0 -19.5797,-8.76613 -19.5797,-19.5797l-2.61481e-07,0Z" style="fill:#434343;fill-opacity:0.3;fill-rule:nonzero;"/><path d="M20.9866,28.6591l0,-8.28294l2.78211,0l0.415686,-3.21764l-3.19779,0l0,-2.07089c0,-0.923834 0.255879,-1.56091 1.59894,-1.56091l1.7268,0l0,-2.8991c-0.287826,-0.0319351 -1.31111,-0.127421 -2.49428,-0.127421c-2.49428,0 -4.15711,1.49721 -4.15711,4.26889l0,2.38943l-2.81397,0l0,3.21764l2.81397,0l0,8.28294l3.32565,0l-8.89036e-08,-2.40563e-07Z" style="fill:#434343;fill-opacity:0.8;fill-rule:nonzero;"/></svg>