<?xml version="1.0" standalone="no"?>
<!DOCTYPE svg PUBLIC "-//W3C//DTD SVG 1.1//EN" "http://www.w3.org/Graphics/SVG/1.1/DTD/svg11.dtd">
<svg width="100%" height="100%" viewBox="0 0 39 39" version="1.1" xmlns="http://www.w3.org/2000/svg" xmlns:xlink="http://www.w3.org/1999/xlink" xml:space="preserve" style="fill-rule:evenodd;clip-rule:evenodd;stroke-linejoin:round;stroke-miterlimit:1.41421;">
    <path d="M2.84217e-14,19.5797C2.84217e-14,8.76613 8.76613,1.7053e-13 19.5797,1.7053e-13C24.7726,1.7053e-13 29.7528,2.06287 33.4247,5.73478C37.0966,9.40668 39.1594,14.3869 39.1594,19.5797C39.1594,30.3933 30.3933,39.1594 19.5797,39.1594C8.76613,39.1594 2.84217e-14,30.3933 2.84217e-14,19.5797Z" style="fill:rgb(67,67,67);fill-opacity:0.3;fill-rule:nonzero;"/>
    <path d="M20.4029,21.2741L19.5542,20.5872C19.2715,20.3853 18.9078,20.1023 18.9078,19.5368C18.9078,19.0115 19.2715,18.6479 19.5947,18.3652C20.6048,17.5571 21.615,16.7085 21.615,14.8905C21.615,13.0319 20.4836,12.0622 19.9179,11.6178L21.4129,11.6178L22.9888,10.6078L18.1805,10.6078C16.8874,10.6078 14.9884,10.9309 13.6146,12.0622C12.564,12.951 12.0388,14.2036 12.0388,15.3349C12.0388,17.1934 13.4934,19.1328 16.0794,19.1328C16.3218,19.1328 16.5642,19.1328 16.847,19.0923C16.7258,19.3751 16.6046,19.6176 16.6046,20.062C16.6046,20.7892 17.0087,21.2741 17.332,21.6781C16.2006,21.7589 14.1802,21.8801 12.6852,22.8094C11.2306,23.6579 10.8266,24.9104 10.8266,25.7992C10.8266,27.5769 12.4832,29.2738 16.0389,29.2738C20.2412,29.2738 22.4635,26.9708 22.4635,24.6679C22.4635,22.971 21.4938,22.1629 20.4029,21.2741L20.4029,21.2741ZM17.2108,18.4863C15.15,18.4863 14.1802,15.7793 14.1802,14.1633C14.1802,13.5168 14.3015,12.8703 14.7055,12.345C15.1096,11.8602 15.7965,11.5371 16.4026,11.5371C18.4229,11.5371 19.4734,14.244 19.4734,16.0218C19.4734,16.4662 19.433,17.2338 18.8674,17.7994C18.4633,18.2035 17.8169,18.4863 17.2108,18.4863L17.2108,18.4863ZM17.2511,28.2638C14.6651,28.2638 12.9681,27.0113 12.9681,25.3144C12.9681,23.577 14.5439,23.0115 15.0692,22.8094C16.0794,22.4457 17.3723,22.4054 17.6148,22.4054C17.8572,22.4054 17.9784,22.4054 18.1401,22.4054C19.9988,23.7387 20.8068,24.3851 20.8068,25.6376C20.8068,27.1324 19.5947,28.2638 17.2108,28.2638L17.2511,28.2638Z" style="fill:rgb(67,67,67);fill-opacity:0.8;fill-rule:nonzero;"/>
    <path d="M25.4581,20.1725L25.4581,22.6756L26.7096,22.6756L26.7096,20.1725L29.2126,20.1725L29.2126,18.9869L26.7096,18.9869L26.7096,16.4838L25.4581,16.4838L25.4581,18.9869L23.0209,18.9869L23.0209,20.1725L25.4581,20.1725Z" style="fill:rgb(67,67,67);fill-opacity:0.8;fill-rule:nonzero;"/>
</svg>
