<?xml version="1.0" standalone="no"?><!DOCTYPE svg PUBLIC "-//W3C//DTD SVG 1.1//EN" "http://www.w3.org/Graphics/SVG/1.1/DTD/svg11.dtd"><svg width="100%" height="100%" viewBox="0 0 40 40" version="1.1" xmlns="http://www.w3.org/2000/svg" xmlns:xlink="http://www.w3.org/1999/xlink" xml:space="preserve" style="fill-rule:evenodd;clip-rule:evenodd;stroke-linejoin:round;stroke-miterlimit:1.41421;"><circle cx="20" cy="20" r="20" style="fill:#333;fill-opacity:0.3;"/><g><path d="M15.5717,27.7482l0,-10.4229l-3.49407,0l0,10.4229l3.49407,0ZM13.8419,15.8067c1.24547,0 1.97203,-0.828364 1.97203,-1.7947c0,-1.00086 -0.726558,-1.82908 -1.90281,-1.82908c-1.17625,0 -2.00643,0.724643 -2.00643,1.82908c0,0.966335 0.761111,1.7947 1.93722,1.7947l5.22963e-08,0ZM17.4745,27.7482l3.49407,0l0,-5.86716c0,-0.345125 0,-0.69025 0.0692166,-0.828364c0.276739,-0.69025 0.830311,-1.2424 1.83359,-1.2424c1.24534,0 1.76425,0.966335 1.76425,2.38137l0,5.62549l3.45968,0l0,-5.93609c0,-3.24426 -1.72984,-4.72834 -3.97859,-4.72834c-1.90268,0 -2.73299,1.06991 -3.14815,1.72564l0,-1.48409l-3.49407,0c0.103753,1.00098 0,10.4229 0,10.4229l0,-0.0689293l-1.25511e-07,3.76533e-07Z" style="fill:#434343;fill-opacity:0.8;fill-rule:nonzero;"/></g></svg>