<svg xmlns:svg="http://www.w3.org/2000/svg" xmlns="http://www.w3.org/2000/svg" width="243.4" height="73.5" viewBox="0 0 243.4 73.5" version="1.1"><style>.s0{fill:#666;}.s1{fill:#999;}</style><g transform="translate(-21.407664,-290.18949)"><path d="M-25.7 193.8" style="fill:none;stroke:#000"/><path d="m95 326.9c0-20.3-16.5-36.7-36.8-36.7-20.3 0-36.8 16.5-36.8 36.7 0 20.3 16.5 36.7 36.8 36.7 20.3 0 36.8-16.4 36.8-36.7" fill="#f29400"/><path d="m55.3 309.1 14.5 10.2-17.8 9.4-2.2 23.6 16.6 10.4c16.4-3.7 28.7-18.3 28.7-35.9 0-0.4 0-0.7 0-1.1l-38.6-24.2-1.2 7.5z" fill="#dd8005"/><path d="m78.2 315.3-21.8-13.7-9.3 5 19.6 12.4-14.7 7.9c-1.5 0.8-2.5 2.3-2.5 4l0.1 21.6 9.1-5.1 0-13.7 19.2-10.4c1.4-0.8 2.3-2.3 2.4-3.8 0.1-1.6-0.7-3.2-2.1-4.1z" fill="#fff"/><path d="m126.6 333.1c-1.9 1.2-3.7 1.6-5.7 1.6-0.7 0-1.6 0-3.4-0.3l0 7.2-3.4 0 0-25.2c1.9-0.1 4.3-0.2 5.8-0.2 2.6 0 4.7 0.2 6.6 1.3 2.9 1.8 3.7 5 3.7 7.8 0 3.3-1.2 6.3-3.7 7.8l0 0zm-6.4-14.4c-0.7 0-1.3 0-2.7 0.1l0 12.9c1.7 0.2 2.4 0.2 3.2 0.2 3.3 0 6-1.7 6-6.8 0-4.7-2.5-6.5-6.5-6.5l0 0zM136.7 320.8l0 13.4-3.3 0 0-17.7 3 0 0 1.7c2.2-1.4 4-1.8 7.2-1.8l-0.1 3c-3.3 0-5 0.2-6.8 1.4zM146.4 316.4l0 17.7 3.4 0 0-17.7-3.4 0zM165.8 334.2l0-11.3c0-2 0-4-3-4-1.7 0-4.3 1-5.8 1.6l0 13.6-3.3 0 0-17.7 3.1 0 0 1.6c3.5-1.5 4.7-1.9 7.2-1.9 2.6 0 5.3 1.5 5.3 5.4l0 12.7-3.4 0zM181.6 319l0-2.6-5.1 0 0-4.1-3.4 0 0 17.4c0 4.2 1.8 4.4 5.4 4.4l2.9 0 0-2.6-2.6 0c-1.7 0-2.4-0.1-2.4-2.1l0.1-10.4 5.1 0zM185.3 316.4l0 17.7 3.3 0 0-17.7-3.3 0zM204.4 334.2l-4.8-6.9-4.7 6.9-3.8 0 6.5-8.9-6.1-8.8 4.3 0 4.4 6.9 4.5-6.9 3.6 0-6.1 8.8 6.5 8.9-4.2 0z" fill="#666"/><path d="m210.8 330.5 0 3.7 3.4 0 0-3.7-3.4 0zM229.4 334.2l0-11.3c0-2 0-4-3-4-1.8 0-4.3 1-5.8 1.6l0 13.6-3.4 0 0-17.7 3.1 0 0 1.6c3.5-1.5 4.8-1.9 7.2-1.9 2.5 0 5.3 1.5 5.3 5.4l-0.1 12.7-3.3 0zM239.7 326.4c0.6 5.5 4.5 5.6 7.1 5.6 1.6 0 3.1-0.2 4.8-0.5l-0.1 2.4c-2.1 0.6-3.9 0.6-5.9 0.6-6.2 0-9.6-3.6-9.6-9.6 0-6.2 3.9-8.8 8.4-8.8 6.1 0 8.6 3.7 8.6 9.4l-0.1 0.9-13.3 0zm4.7-7.9c-3 0-4.6 2-4.7 5.6l9.5 0c-0.1-3.2-1.2-5.6-4.8-5.6zM264.8 319l0-2.6-5.1 0 0-4.1-3.4 0 0 17.4c0 4.2 1.8 4.4 5.4 4.4l2.9 0 0-2.6-2.6 0c-1.7 0-2.4-0.1-2.4-2.1l0-10.4 5.1 0z" fill="#999"/></g></svg>