<?xml version="1.0" standalone="no"?><!DOCTYPE svg PUBLIC "-//W3C//DTD SVG 1.1//EN" "http://www.w3.org/Graphics/SVG/1.1/DTD/svg11.dtd"><svg width="100%" height="100%" viewBox="0 0 40 40" version="1.1" xmlns="http://www.w3.org/2000/svg" xmlns:xlink="http://www.w3.org/1999/xlink" xml:space="preserve" style="fill-rule:evenodd;clip-rule:evenodd;stroke-linejoin:round;stroke-miterlimit:1.41421;"><circle cx="20" cy="20" r="20" style="fill:#333;fill-opacity:0.3;"/><path d="M29.2184,14.0868c-0.686005,0.285692 -1.39935,0.514185 -2.16755,0.59984c0.795695,-0.485585 1.37185,-1.25686 1.6736,-2.17098c-0.740699,0.42853 -1.53639,0.771277 -2.4143,0.942714c-0.685846,-0.771277 -1.67358,-1.25686 -2.74353,-1.25686c-2.08519,0 -3.78615,1.77103 -3.78615,3.94201c0,0.314275 0.0275143,0.628439 0.0823513,0.914115c-3.12762,-0.171437 -5.92616,-1.74245 -7.7918,-4.11345c-0.329102,0.57124 -0.521159,1.22826 -0.521159,1.97107c0,1.3711 0.685846,2.57091 1.70095,3.28499c-0.631009,-0.0284559 -1.20715,-0.199893 -1.70095,-0.514169c0,0.0285835 0,0.0571831 0,0.0571831c0,1.91388 1.28936,3.51362 3.01779,3.85637c-0.329102,0.0857826 -0.658347,0.142838 -0.987593,0.142838c-0.246894,0 -0.493804,-0.0285995 -0.713344,-0.0570554c0.46645,1.54254 1.86564,2.68515 3.53924,2.71375c-1.2895,1.05695 -2.9356,1.68539 -4.71903,1.68539c-0.301747,0 -0.60351,0 -0.905257,-0.057199c1.70095,1.14262 3.67628,1.77105 5.81633,1.77105c6.94111,0 10.7548,-5.99875 10.7548,-11.1977c0,-0.171437 0,-0.342875 -0.0275143,-0.514185c0.768197,-0.571368 1.39921,-1.25699 1.89315,-2.02827l1.59504e-07,0.0285994Z" style="fill:#434343;fill-opacity:0.8;fill-rule:nonzero;"/></svg>