<?xml version="1.0" standalone="no"?><!DOCTYPE svg PUBLIC "-//W3C//DTD SVG 1.1//EN" "http://www.w3.org/Graphics/SVG/1.1/DTD/svg11.dtd"><svg width="100%" height="100%" viewBox="0 0 154 145" version="1.1" xmlns="http://www.w3.org/2000/svg" xmlns:xlink="http://www.w3.org/1999/xlink" xml:space="preserve" style="fill-rule:evenodd;clip-rule:evenodd;stroke-miterlimit:8;"><g><path d="M55.779,111.743c-8.96655,-6.4475 -12.8388,-22.8598 -8.64899,-36.6579c1.82533,-6.01123 4.99789,-10.8082 8.93572,-13.5109" style="fill:none;stroke-width:8.33px;stroke:#f39910;"/><path d="M100.419,109.656c-10.067,4.54151 -26.2166,-0.311155 -36.0712,-10.8387c-4.2932,-4.58638 -6.8612,-9.73238 -7.23292,-14.494" style="fill:none;stroke-width:8.33px;stroke:#f39910;"/><path d="M120.888,71.6859c-1.10042,10.989 -13.3778,22.5487 -27.4222,25.8192c-6.11854,1.42484 -11.8591,1.07579 -16.1686,-0.983109" style="fill:none;stroke-width:8.33px;stroke:#f39910;"/><path d="M54.1643,35.2961c10.067,-4.54151 26.2166,0.311147 36.0712,10.8387c4.29322,4.58639 6.86122,9.73239 7.23294,14.494" style="fill:none;stroke-width:8.33px;stroke:#f39910;"/><path d="M33.5927,74.5673c1.10042,-10.989 13.3778,-22.5487 27.4222,-25.8192c6.11854,-1.42484 11.8591,-1.0758 16.1687,0.983099" style="fill:none;stroke-width:8.33px;stroke:#f39910;"/><path d="M98.0168,34.5984c8.96655,6.4475 12.8388,22.8598 8.64899,36.6579c-1.82533,6.01123 -4.99789,10.8082 -8.93572,13.5109" style="fill:none;stroke-width:8.33px;stroke:#f39910;"/></g></svg>